Coordinates
version=1
nRows=14
nColumns=36
inDegrees=yes

Units are S.I. units (second, meters, Newtons, ...)
If the header above contains a line with 'inDegrees', this indicates whether rotational values are in degrees (yes) or radians (no).

endheader
time	pelvis_tilt	pelvis_list	pelvis_rotation	pelvis_tx	pelvis_ty	pelvis_tz	hip_flexion_r	hip_adduction_r	hip_rotation_r	knee_angle_r	knee_angle_r_beta	ankle_angle_r	subtalar_angle_r	mtp_angle_r	hip_flexion_l	hip_adduction_l	hip_rotation_l	knee_angle_l	knee_angle_l_beta	ankle_angle_l	subtalar_angle_l	mtp_angle_l	lumbar_extension	lumbar_bending	lumbar_rotation	arm_flex_r	arm_add_r	arm_rot_r	elbow_flex_r	pro_sup_r	arm_flex_l	arm_add_l	arm_rot_l	elbow_flex_l	pro_sup_l
      5.05000000	     -2.15609516	      2.37304609	      0.87361979	      1.00957898	      1.02434334	      0.00253813	     12.66941666	     -5.67864086	      5.20824250	     21.73012931	      0.37926230	      6.96379234	    -17.35013703	     -7.49999987	      3.19792326	      4.33756191	      2.94541593	      1.79799150	      0.03138087	      7.92184888	     -5.12298698	     -7.49999987	     -1.50615535	     -0.74777757	     -5.96882816	      1.14349196	     -5.86100912	     10.63379693	     70.07556150	     76.75177574	     15.56178441	     -5.51239275	     22.48748814	     59.82505750	     77.93792013
      5.06666670	     -2.18386901	      2.58199260	      0.43461110	      1.00603736	      1.01783109	      0.00446233	     14.31000609	     -5.96539223	      5.52773911	     24.31820281	      0.42443271	      7.58463313	    -17.30276860	     -7.49999987	      3.31185942	      4.60892208	      2.64693760	      1.89666729	      0.03310309	      8.12109546	     -5.29104736	     -7.49999987	     -1.56871608	     -1.14025523	     -6.67631491	      1.70646623	     -6.09463523	     13.32363400	     70.62472002	     76.20217546	     17.28002231	     -5.61149013	     24.41385118	     60.15790464	     77.60274559
      5.08333330	     -2.60891047	      2.72628649	     -0.05146827	      1.00238640	      1.01831484	      0.00112282	     16.42052174	     -6.27518556	      5.70506685	     26.81544107	      0.46801774	      7.98251204	    -16.80320122	     -7.49999987	      3.92853790	      4.86606561	      2.51312745	      1.96670458	      0.03432547	      8.14773672	     -5.79666820	     -7.49999987	     -1.28665303	     -1.30674219	     -7.51883856	      2.37060734	     -6.58486964	     16.08417955	     70.69231503	     81.41318922	     18.46728199	     -5.59714414	     25.15309648	     60.60798901	     86.90542016
      5.10000000	     -2.82972283	      2.85564458	     -0.40573169	      1.00147654	      1.01836177	      0.00049565	     18.12810834	     -6.57696951	      5.65248265	     28.97386686	      0.50568937	      8.69281337	    -15.73959910	     -7.49999987	      4.33739868	      5.11468395	      2.24635999	      2.00359661	      0.03496936	      8.17517425	     -6.16969157	     -7.49999987	     -1.20412612	     -1.37303306	     -8.01639604	      2.59644477	     -6.97195445	     17.96146739	     70.55180231	     79.72059029	     19.80754992	     -5.25607227	     26.54665494	     60.38408022	     85.26696217
      5.11666670	     -3.10940639	      3.05206463	     -0.91061609	      0.99950944	      1.02102659	     -0.00417106	     19.76749916	     -7.06801047	      5.51897589	     30.79207459	      0.53742309	      8.86582063	    -14.54823423	     -7.49999987	      4.76024128	      5.44141992	      1.64610079	      1.91257223	      0.03338068	      8.09200111	     -5.95584985	     -7.49999987	     -1.06721278	     -1.38898044	     -8.38571562	      2.59322791	     -7.46732604	     19.39926121	     70.19456453	     80.06267672	     20.74643874	     -4.55432177	     27.11741998	     59.91281100	     85.64168547
      5.13333330	     -3.28572789	      3.07454470	     -1.36300315	      0.99745178	      1.02399795	     -0.00204907	     21.00467440	     -7.32646092	      5.22276367	     32.01508230	      0.55876860	      9.08919332	    -12.81822198	     -7.49999987	      5.05075564	      5.51658018	      1.12688182	      1.84489378	      0.03219947	      7.84138813	     -5.96686431	     -7.49999987	     -1.04711597	     -1.24739369	     -8.84817710	      2.51625098	     -7.56699889	     20.07412411	     69.06353693	     80.35870993	     21.41374570	     -3.92447738	     27.19065985	     59.09784205	     85.97167482
      5.15000000	     -3.49885089	      3.01951407	     -1.95458038	      0.99753154	      1.01931883	     -0.00251677	     22.07813021	     -7.50348727	      4.75692076	     32.95312715	      0.57514057	      9.29173082	    -11.11533606	     -7.49999987	      5.33573183	      5.47950959	      0.56379321	      1.79504094	      0.03132937	      7.79007810	     -5.84809508	     -7.49999987	     -0.89179852	     -1.06031828	     -9.50932274	      2.06858006	     -7.57716757	     20.58458224	     68.15177930	     82.33675614	     21.53105797	     -3.34922072	     26.34736205	     58.85472640	     87.91086941
      5.16666670	     -3.58772310	      2.97078132	     -2.67090421	      0.99717402	      1.02704880	     -0.00515243	     22.73224260	     -7.71311545	      4.42879074	     33.32011973	      0.58154580	      9.06178068	     -9.59920173	     -7.49999987	      5.39017458	      5.43239338	      0.05208427	      1.61139994	      0.02812423	      7.37666172	     -5.83344804	     -7.49999987	     -0.87626658	     -0.81690742	     -9.88246222	      1.46809791	     -7.61117808	     20.70092160	     66.72925079	     80.58634622	     21.67367950	     -2.78231255	     26.10451380	     57.92555985	     85.78746764
      5.18333330	     -3.48591627	      2.85552652	     -3.45614795	      0.99549057	      1.03019165	     -0.00392997	     22.93379398	     -7.87033839	      3.77008706	     33.29175696	      0.58105077	      8.89483697	     -7.89211611	     -7.49999987	      5.20559899	      5.28764918	     -0.95553583	      1.44379629	      0.02519900	      7.53748092	     -4.70941799	     -7.49999987	     -1.02344674	     -0.57709889	    -10.24067494	      0.94411098	     -7.59731168	     20.92388771	     64.63409565	     77.06242028	     21.59599765	     -2.25571575	     25.77150845	     56.69231271	     81.27258501
      5.20000000	     -3.30615507	      2.71393192	     -4.28094479	      0.99717330	      1.03244346	     -0.00535215	     22.72175318	     -8.09279572	      3.02415047	     32.98342537	      0.57566937	      8.38775443	     -7.32813106	     -7.49999987	      4.81393361	      5.15089501	     -1.42168350	      1.18330057	      0.02065249	      7.01759712	     -4.95485744	     -7.49999987	     -1.16153106	     -0.19505087	    -10.86348930	      0.80125922	     -7.79240992	     20.75522962	     61.94722344	     83.53172040	     20.85272678	     -1.81990539	     24.09777793	     56.09269165	     88.88246546
      5.21666670	     -3.06130689	      2.50441111	     -5.22426943	      0.99476650	      1.03010150	     -0.00390812	     22.50340848	     -8.19990272	      2.20162987	     32.80775064	      0.57260327	      8.31596764	     -6.95118598	     -7.49999987	      4.44581755	      4.97327353	     -2.17586709	      1.05222507	      0.01836479	      7.07892947	     -4.96510891	     -7.49999987	     -1.48391013	      0.19997956	    -10.93445392	      0.60388130	     -7.99883930	     20.16622669	     59.19614000	     83.45393760	     20.44512995	     -1.38254362	     23.46871396	     54.94788437	     88.88127334
      5.23333330	     -2.78576579	      2.29511316	     -5.97459821	      0.99316976	      1.03436605	     -0.00246571	     21.98636924	     -8.43988161	      1.14958076	     32.69076471	      0.57056148	      7.65035401	     -7.75888012	     -7.49999987	      4.05102731	      4.77322868	     -3.16038601	      1.00641609	      0.01756527	      7.19391170	     -4.53109256	     -7.49999987	     -1.58607462	      0.44232278	    -11.57893331	      0.81035944	     -8.00859521	     20.12406453	     55.32405651	     83.60877757	     19.67198068	     -1.24459470	     22.36051264	     53.39449777	     89.24335082
      5.25000000	     -2.29698031	      2.00051271	     -6.80826737	      0.99114295	      1.03329470	     -0.00061865	     21.32961168	     -8.67765468	     -0.09130853	     32.97122824	      0.57545649	      7.20704478	     -9.09297834	     -7.49999987	      3.47288077	      4.51405668	     -3.91480989	      0.99880363	      0.01743241	      7.42771221	     -4.64352665	     -7.49999987	     -2.13945688	      0.76819672	    -11.80232563	      0.79143152	     -7.94873265	     19.10946201	     51.67733792	     83.53529904	     19.00665240	     -1.25066885	     21.74726671	     52.06939102	     89.35765084
      5.26666670	     -1.94260798	      1.75441253	     -7.53033917	      0.99280811	      1.02955985	      0.00200005	     20.72132898	     -8.92555764	     -1.34108425	     33.56812886	      0.58587437	      6.71831928	    -11.32445404	     -7.49999987	      3.03606947	      4.25669041	     -4.67632916	      1.09068570	      0.01903606	      7.77799735	     -4.59357487	     -7.49999987	     -2.24625546	      0.99368968	    -12.51855077	      0.83053769	     -7.72466977	     18.15614687	     47.78950193	     83.56361153	     17.88724721	     -1.55695069	     20.74710556	     50.68447282	     89.68614905
